Patient4_TMGait_0pt3_03_left_30_EMG.mot
version=1
nRows=36
nColumns=33
inDegrees=no
endheader
time	1LAddLong	2LGlutMax	3LGlutMed	4LIliopsoas	5LSemiMemb	6LBicFemLong	7LRecFem	8LVastMed	9LVastLat	10LGasMed	11LTibAnt	12lTibPost	13LPeroneusLong	14LSol	15LExtDigLong	16LFlexDigLong	17RAddLong	18RGlutMax	19RGlutMed	20RIliopsoas	21RSemiMemb	22RBicFemLong	23RRecFem	24RVastMed	25RVastLat	26RGasMed	27RTibAnt	28RTibPost	29RPeroneusLong	30RSol	31RExtDigLong	32RFlexDigLong
53.817	0.012817	0.20477	0.090637	-0.004425	-0.019379	0.68497	-0.041046	0.001526	0.25589	0.013733	0.016327	0.003357	-0.064545	-0.10071	-0.030212	-0.025024	-0.052338	-0.16419	-0.085754	0.36774	0.01297	0.03418	-0.072174	-0.033569	0.00946	-0.000458	0.042572	0.007172	-0.010376	-0.073242	-0.003357	-0.009766
53.818	0.001373	0.20416	0.016479	-0.01709	-0.028992	0.4216	-0.074921	0.01236	0.27496	0.033569	0.015869	0.005951	-0.091553	-0.13001	-0.020599	-0.030212	-0.061035	-0.16647	-0.059814	0.14969	-0.038757	0.020752	-0.065765	0.029449	0.004883	0.003815	0.013428	0.003357	0.001068	-0.032196	-0.006714	-0.008392
53.819	0.010223	0.15503	0.007629	-0.010681	-0.077515	0.091553	-0.1503	0.013733	0.26245	0.072632	0.004578	-0.002594	0.095978	-0.12268	0.024414	-0.028839	-0.056	-0.14481	-0.14282	-0.025482	-0.042267	-0.001221	-0.083466	0.058136	0.022736	0.005035	-0.001526	0.002594	0.007629	-0.045776	-0.002289	-0.00473
53.82	0.01297	0.1503	0.021667	0.010071	-0.084686	-0.64362	-0.16464	0.002747	0.30777	0.14389	0.011444	0.010071	0.46921	-0.080566	0.027618	-0.044556	-0.048065	-0.17014	-0.08606	-0.06073	-0.011749	-0.010681	-0.056458	0.032806	0.016022	0.00412	-0.000458	0.003357	-0.31479	-0.037079	-0.00351	-0.000458
53.821	0.026093	0.15243	0.019836	-0.004578	0.036926	-1.1844	-0.13596	-0.007324	0.2478	0.12268	0.023193	-0.005035	1.028	0.006409	0.03479	-0.027618	-0.057678	-0.11612	-0.032043	-0.050201	0.016327	0.005035	-0.02182	0.001526	0.006409	0.002289	0.00946	-0.00351	-0.60379	-0.027924	-0.003357	0.002441
53.822	0.025024	0.16144	0.057526	-0.003662	0.090637	-1.2747	-0.10788	0.001984	0.098419	-0.1059	0.002594	0.000153	0.98404	0.075989	0.070343	-0.017853	-0.037842	-0.20554	0.097961	0.15167	0.036621	0.00473	-0.010681	-0.036163	0.028687	0.001373	0.027618	0.002289	-0.59998	-0.063782	-0.001831	-0.003204
53.823	0.019226	0.14847	0.072174	-0.00824	0.058289	-0.99533	0.030823	0.011444	-0.15503	-0.22034	-0.019989	-0.002747	-0.035248	-0.044556	0.012817	-0.037079	-0.020752	-0.16083	0.012665	0.037994	0.034332	0.011597	-0.02243	0.018005	0.014191	-0.006714	0.006256	0.000916	0.32227	-0.070648	-0.002594	-0.006409
53.824	0.004883	0.11078	0.081177	-0.005493	0.059509	-0.70404	0.083771	0.011749	-0.21545	0.007477	0.00061	0.006409	-0.79041	-0.16968	-0.02594	-0.029144	-0.010681	-0.13138	0.041656	-0.19684	-0.006561	0.013428	-0.01297	0.027466	0.018463	-0.007629	0.027771	-0.000153	0.59204	-0.014954	-0.003357	-0.013275
53.825	0.005341	0.080414	0.06073	0.010986	0.025787	-0.37033	0.050507	0.011597	-0.039368	0.3038	-0.016174	-0.005951	-0.33157	-0.014801	0.019226	-0.017853	-0.046387	-0.084229	-0.054016	-0.24979	-0.072327	0.048981	-0.019073	-0.006866	0.012512	-0.010529	0.057068	0.002747	0.10971	0.056915	-0.00412	-0.016174
53.826	-0.007782	0.055389	0.001984	0.007172	0.001984	-0.10025	0.030365	0.005951	-0.046997	0.39291	-0.019379	-0.009003	-0.33905	0.033112	-0.030212	-0.011292	-0.041962	-0.14343	-0.13947	-0.089417	-0.067444	0.031586	-0.036774	0.008392	0.016022	-0.006866	0.069733	0.000763	-0.16861	0.15793	-0.003052	-0.021973
53.827	-0.022278	0.033569	-0.059967	0.005493	-0.001831	-0.014801	0.064087	0.012054	-0.21866	0.59357	-0.000763	-0.006561	-0.22629	0.067596	-0.046692	0.012054	-0.043182	-0.098877	-0.1297	0.016327	0.051575	0	-0.009308	-0.007019	0.033722	-0.005188	0.039978	0.000458	0.15762	0.21668	-0.004272	-0.004883
53.828	-0.019531	0.017548	-0.063782	0.001831	-0.042877	0.005035	0.076752	0.008087	-0.26535	1.2646	-0.008545	0.023041	-0.23468	0.14252	0.023804	0.00946	-0.030823	-0.13077	0.008698	0.011597	0.014801	-0.027161	0.007019	0.016632	0.027161	0.001068	0.015259	0.007782	0.28824	0.23239	-0.008545	-0.003967
53.829	-0.02594	0.026855	-0.066681	0.004272	-0.10681	0.061188	0.041962	0.009308	-0.10819	1.2317	-0.009308	0.039368	-0.41122	0.15335	0.022583	0.016785	-0.034637	-0.073395	0.069427	-0.011902	-0.057983	0.063171	0.019226	-0.057526	0.014038	0.003815	0.011139	0.001221	0.44281	0.22125	-0.00473	-0.003357
53.83	-0.027771	0.054169	-0.15488	-0.003662	-0.094604	0.025482	-0.02243	0.017548	-0.11749	0.25207	-0.011902	0.005341	-0.021362	-0.10559	-0.05722	-0.011749	-0.048523	0.008087	0.094299	-0.010986	-0.011902	0.026703	0.056	-0.061493	-0.002289	0.004578	0.028076	0.006409	0.31387	0.15686	-0.00473	-0.004578
53.831	-0.011139	0.02182	-0.24414	-0.013428	-0.067749	-0.13794	-0.052032	0.017548	-0.1033	0.014954	-0.034027	-0.009003	0.17578	-0.25696	-0.12268	-0.003204	-0.0354	0.009766	-0.056763	0.04715	0.048828	-0.05249	0.008698	-0.03006	0.029297	0.005646	0.043945	0.002899	0.17212	0.017242	-0.007629	-0.005188
53.832	0.011292	0.023193	-0.21637	-0.010223	0.045624	-0.23682	-0.027771	0.015411	-0.10391	-0.66986	-0.024567	0.14801	0.14358	-0.035095	-0.15732	-0.005798	-0.02655	-0.025482	-0.22201	0.035858	0.031891	-0.027466	0.026093	-0.048523	0.013885	0.00412	0.069275	0.001068	-0.002594	-0.10925	-0.004578	-0.005188
53.833	0.011749	-0.045624	-0.075531	0.009155	0.14603	-0.16281	-0.038147	0.016937	-0.068359	-0.85358	0.002594	0.29617	0.038452	0.054474	0.060577	0.012512	-0.034485	-0.024109	-0.24933	-0.038605	-0.029602	0.046082	0.016785	-0.067596	0.001984	0.00824	0.04715	0.002289	-0.14374	-0.093231	-0.002441	-0.002136
53.834	0.027466	-0.01358	0.00473	0.005341	0.058441	-0.041656	-0.056	0.00885	-0.024872	-0.62683	-0.000458	-0.22278	-0.020752	-0.36072	0.043488	0.005951	-0.0177	0.005341	-0.037384	-0.14114	-0.00885	0.019836	0.070953	-0.050964	0.010986	0.016327	0.04425	-0.005188	-0.25925	-0.029449	-0.003662	-0.003815
53.835	0.051422	0.033569	0.088654	0.005035	-0.004425	-0.059662	-0.085297	-0.007172	0.018463	-0.09491	-0.005951	0.036163	-0.028534	-0.80872	-0.051575	0.011292	-0.012665	-0.048218	0.051117	-0.11215	0.006561	0.062256	0.036621	-0.062866	0.003815	0.02121	0.064697	0.000305	-0.34805	-0.093231	-0.002136	-0.007477
53.836	0.038147	0.045013	0.058746	-0.010681	0.01358	-0.079041	-0.083466	-0.02243	0.03952	-0.073853	-0.007172	0.029449	-0.013275	-0.7132	-0.028229	0.029297	-0.010834	-0.050049	-0.059967	0.037994	0.02182	0.098419	0.002441	-0.050507	0.008698	0.010376	0.052948	-0.000916	-0.15091	-0.17014	-0.004578	-0.00885
53.837	0.023651	0.082245	-0.032196	-0.007019	-0.024872	-0.085144	-0.012207	-0.021362	0.043945	-0.1947	-0.009308	-0.022888	0.080414	-0.48233	-0.027466	-0.040436	-0.025787	-0.024109	-0.11704	0.045776	0.018616	0.0737	0.000305	-0.053406	0.005798	0.00061	0.037689	-0.00351	0.10941	-0.2417	-0.001984	-0.002747
53.838	-0.013733	0.13382	-0.12619	-0.009155	-0.061035	-0.018463	0.057983	-0.004272	0.019684	-0.1651	0.001831	-0.045776	-0.084839	-0.11765	0.018616	-0.061035	-0.019989	-0.082245	-0.15305	0.042267	0.03418	0.050659	0.005035	-0.005341	0.014038	0.002747	0.007477	-0.003815	0.30518	-0.20981	-0.001831	-0.007477
53.839	-0.032349	0.15793	-0.12817	-0.007172	-0.15335	0.024567	0.054169	0.003967	0.02243	-0.16449	0.014496	0.025787	-0.17212	-0.11932	0.037537	0.023956	-0.015564	-0.12528	-0.09964	0.03479	0.01358	0.024414	0.017242	-0.040894	0.03418	0.00473	-0.010529	0.000763	0.34027	-0.18036	0.001831	-0.000458
53.84	-0.029907	0.18585	0.002441	-0.006714	-0.16342	-0.04837	0.06546	-0.001678	0.037842	-0.13809	0.003357	-0.018311	-0.1059	0.015106	0.045471	0.019684	0.000458	-0.14252	-0.022278	0.040588	0.010681	0.006256	0.007324	-0.063934	0.015106	-0.009766	0.010834	0.00061	0.20844	-0.1506	-0.001678	-0.010834
53.841	-0.006409	0.23544	0.10437	-0.012512	-0.097198	-0.14496	0.04715	-0.005493	0.04715	-0.086365	0	-0.11215	0.23224	0.11932	0.036011	0	-0.012817	-0.070801	-0.012054	0.021515	0.001373	0.054016	0.046234	-0.055084	0.020294	-0.018005	0.026855	-0.007629	0.10529	-0.13443	-0.002136	-0.003815
53.842	0.00351	0.25436	0.1178	0.012665	-0.032654	-0.078125	0.081024	-0.006104	0.031586	-0.049744	-0.000763	-0.10147	0.39261	0.20416	0.005035	-0.015564	-0.026245	-0.096283	0.002899	-0.037231	0	0.1239	0.019989	-0.032959	0.018921	-0.015106	0.036011	0.002441	-0.037384	-0.15732	-0.001678	-0.013885
53.843	-0.005951	0.23819	0.057526	-0.012665	0.066833	0.044098	0.072174	-0.005798	0.051422	-0.04364	0.019073	-0.039215	0.4425	0.16556	-0.02655	-0.007172	-0.040436	-0.15808	-0.10239	-0.024109	0.024261	0.15091	0.007019	-0.037384	0.021973	-0.013733	0.044861	0.001984	-0.14328	-0.13733	-0.001526	-0.015106
53.844	-0.00946	0.20996	0.094604	-0.01358	0.067444	0.060425	0.10574	-0.00351	0.092163	-0.028992	0.022125	-0.032043	-0.58548	0.23193	0.003357	-0.007477	-0.054779	-0.02533	-0.037384	-0.001678	0.024567	0.095978	0.050964	-0.014801	0.013428	-0.004272	0.038147	0.000153	-0.15595	-0.080109	-0.00412	-0.004578
53.845	0.016632	0.12039	0.05661	-0.005798	0.036774	0.10864	0.064697	0.001526	0.074005	-0.026093	0.044708	-0.042572	-0.75058	0.30594	0.032501	0.001221	-0.069733	-0.050507	0.009918	-0.006409	0.014191	0.065002	0.001984	-0.002289	0.014191	-0.008545	0.036926	0	-0.13382	-0.056915	-0.002747	-0.012665
53.846	0.016174	0.092926	0.016479	-0.015259	0.083008	0.071869	0.077667	0	0.027008	-0.094299	-0.021515	-0.025482	0.003662	0.29144	0.043945	0.010529	-0.065155	-0.058441	0.17212	-0.00885	0.008545	0.063477	-0.032349	0.015259	0.030212	-0.005951	0.042419	0.003967	-0.058746	-0.081635	-0.00061	-0.016479
53.847	0.019684	0.15366	-0.043488	-0.002747	0.070343	0.073547	0.0737	0.003204	-0.018005	-0.159	-0.096588	-0.014801	1.268	0.28122	0.061798	0.016937	-0.08728	-0.017548	0.30655	-0.017548	0.014191	0.077515	-0.069275	0.039063	0.038605	-0.008087	0.037689	-0.000153	0.048828	-0.090637	-0.002594	-0.010681
53.848	0.011749	0.15778	-0.029144	0.018616	0.026855	0.096741	0.090027	0.005646	-0.065613	0.011139	-0.013733	-0.020752	0.98373	0.21484	-0.024567	0.005646	-0.10346	0.036469	0.28839	-0.027771	0.001068	0.074768	-0.019226	-0.027008	0.028534	-0.006561	0.019531	-0.00061	0.084381	-0.059204	-0.004883	-0.012054
53.849	-0.006714	0.11734	0.004578	-0.018921	0.001526	0.18326	0.073547	0.011902	-0.10925	0.10208	0.059662	-0.016937	-0.24277	0.11414	-0.10666	0.004883	-0.12436	0.010986	0.16174	-0.024414	-0.000763	0.041199	0.003204	0.001373	0.020447	-0.009155	0.023346	0.000916	0.048218	-0.022583	-0.007324	-0.013428
53.85	-0.01709	0.10819	0.053558	-0.014343	-0.016632	0.20355	0.099945	0.005493	-0.11475	0.13641	0.038757	-0.020905	-0.35797	0.097046	-0.19348	-0.006256	-0.12375	0.005493	-0.25101	-0.006104	-0.009308	0.037994	0.047455	-0.008392	0.023804	-0.005493	0.018311	-0.004578	-0.054169	-0.018768	-0.004272	-0.011139
53.851	0.021057	0.10391	0.03952	0.001068	-0.005798	0.27054	0.1506	-0.003662	-0.068359	0.093689	0.028839	-0.018005	-0.19867	0.19424	-0.091705	0.005493	-0.10178	-0.023651	-0.36865	-0.009003	0.004578	0.031738	0.031738	-0.010376	0.03418	-0.007935	0.041656	-0.001526	-0.10452	-0.054779	-0.00473	-0.006409
53.852	0.022888	0.11643	0.05188	-0.005951	0.008087	0.26581	0.10025	-0.00473	0.077667	0.069122	0.024414	-0.00946	-0.17807	0.20264	0.001678	0.001373	-0.062561	-0.02655	-0.24094	0.029144	-0.002441	0.024109	0.021515	-0.032501	0.018616	0.010071	0.037842	-0.001221	-0.22278	-0.030823	-0.004425	-0.001831
